<?xml version="1.0" encoding="UTF-8"?> <svg xmlns="http://www.w3.org/2000/svg" xmlns:xlink="http://www.w3.org/1999/xlink" version="1.1" id="Layer_1" x="0px" y="0px" viewBox="0 0 100 100" style="enable-background:new 0 0 100 100;" xml:space="preserve"> <style type="text/css"> .st0{fill:none;stroke:#E2B116;stroke-width:2;} .st1{fill:none;stroke:#E2B116;stroke-width:1.05;stroke-linejoin:bevel;} </style> <g id="Page-1"> <g id="Desktop-Copy-3" transform="translate(-114.000000, -2491.000000)"> <g id="NonStock-Pictogram-HomeAffordabilityTool-O1842174" transform="translate(115.000000, 2492.000000)"> <g id="Group" transform="translate(44.100000, 47.600000)"> <circle id="Oval" class="st0" cx="26.98" cy="22.78" r="7.35"></circle> <path id="Path" class="st0" d="M15.01,42.1c0-6.58,5.32-11.97,11.97-11.97s11.97,5.32,11.97,11.97"></path> <path id="Path_1_" class="st0" d="M48.12,24.88c0,4.69-1.54,9.1-4.2,12.6c-3.85,5.18-10.01,8.47-16.87,8.47 c-11.62,0-21.07-9.45-21.07-21.07S15.43,3.81,27.05,3.81S48.12,13.26,48.12,24.88z"></path> </g> <polyline id="Path_2_" class="st0" points="46.65,77.73 5.98,77.73 5.98,3.81 64.85,3.81 64.78,47.91 "></polyline> <line id="Path_3_" class="st0" x1="23.62" y1="50.92" x2="57.22" y2="50.92"></line> <line id="Path_4_" class="st0" x1="23.62" y1="57.64" x2="50.22" y2="57.64"></line> <line id="Path_5_" class="st0" x1="23.62" y1="64.57" x2="46.72" y2="64.57"></line> <g id="Icon_Art_23_" transform="translate(7.700000, 45.500000)"> <path id="Shape_69_" class="st0" d="M12.98,7.94C12.21,6.96,11.09,6.4,9.83,6.4c-2.03,0-3.01,1.26-3.01,2.45 c0,3.5,6.16,1.96,6.16,5.81c-0.07,1.61-1.47,2.87-3.15,2.8c-1.47,0-2.8-0.7-3.71-1.89"></path> <line id="Shape_68_" class="st0" x1="9.83" y1="6.4" x2="9.83" y2="3.6"></line> <line id="Shape_67_" class="st0" x1="9.83" y1="20.61" x2="9.83" y2="17.53"></line> </g> <line id="Path_6_" class="st0" x1="13.54" y1="71.29" x2="46.02" y2="71.29"></line> <g id="Group_1_" transform="translate(11.900000, 5.600000)"> <polyline id="Path_7_" class="st0" points="33.77,36.01 33.77,22.43 25.44,22.43 25.44,36.01 "></polyline> <polygon id="Path_8_" class="st1" points="40.7,15.92 23.27,3.88 5.84,15.78 "></polygon> <polyline id="Path_9_" class="st0" points="9.2,15.85 9.2,30.34 9.2,36.43 37.34,36.43 37.34,15.92 "></polyline> <polygon id="Path_10_" class="st0" points="12.77,30.06 12.77,22.43 21.94,22.43 21.94,29.99 "></polygon> <circle id="Oval_1_" class="st0" cx="31.32" cy="29.22" r="1"></circle> </g> </g> </g> </g> </svg> 