<svg width="23" height="14" viewBox="0 0 23 14" fill="none" xmlns="http://www.w3.org/2000/svg">
<path d="M15.6029 3.12519L18.1979 5.72019H1.75C1.41848 5.72019 1.10054 5.85188 0.866117 6.0863C0.631696 6.32072 0.5 6.63867 0.5 6.97019C0.5 7.30171 0.631696 7.61965 0.866116 7.85407C1.10054 8.08849 1.41848 8.22019 1.75 8.22019H18.181L15.6018 10.7937L15.6004 10.7952C15.3676 11.0294 15.2369 11.3462 15.2369 11.6764C15.2369 12.0067 15.3676 12.3235 15.6004 12.5577L15.6025 12.5598C15.8367 12.7926 16.1535 12.9233 16.4838 12.9233C16.814 12.9233 17.1308 12.7926 17.365 12.5598L17.3661 12.5587L22.1329 7.79187C22.2438 7.68443 22.3321 7.55594 22.3926 7.41392C22.454 7.27007 22.4856 7.11531 22.4856 6.95894C22.4856 6.80256 22.454 6.6478 22.3926 6.50395C22.3321 6.36207 22.2439 6.23369 22.1332 6.12631L17.375 1.35309C17.3748 1.35287 17.3746 1.35264 17.3743 1.35242C17.2583 1.23557 17.1203 1.14281 16.9682 1.07947C16.8159 1.01601 16.6525 0.983337 16.4875 0.983337C16.3225 0.983337 16.1591 1.01601 16.0068 1.07947L16.1991 1.54102L16.0068 1.07947C15.8551 1.14266 15.7174 1.23513 15.6015 1.35158C15.485 1.4675 15.3925 1.60525 15.3293 1.75697C15.2658 1.90928 15.2332 2.07267 15.2332 2.23769C15.2332 2.4027 15.2658 2.56609 15.3293 2.71841C15.3926 2.87036 15.4853 3.00832 15.6021 3.12435C15.6023 3.12463 15.6026 3.12491 15.6029 3.12519Z" fill="#E2B116" stroke="#E2B116"/>
</svg>
