<svg width="80" height="80" viewBox="0 0 80 80" fill="none" xmlns="http://www.w3.org/2000/svg">
<path d="M36.32 54.1003V40.0003C36.327 39.2291 36.1556 38.4668 35.819 37.7729C35.4825 37.0789 34.9899 36.4723 34.38 36.0003C33.1377 34.9474 31.5584 34.376 29.93 34.3903C28.3192 34.3673 26.7539 34.9246 25.52 35.9603C24.9119 36.4405 24.4238 37.0554 24.0941 37.7565C23.7643 38.4576 23.602 39.2258 23.62 40.0003V54.4703" fill="#E7E2F2"/>
<path fill-rule="evenodd" clip-rule="evenodd" d="M29.9327 33.3903C31.7895 33.3767 33.59 34.0268 35.0097 35.2233C35.7335 35.7876 36.3182 36.5105 36.7188 37.3365C37.1219 38.1677 37.3277 39.0808 37.32 40.0046V54.1003H35.32V39.9912C35.3256 39.3743 35.1885 38.7644 34.9192 38.2092C34.65 37.6541 34.256 37.1688 33.768 36.7912L33.7504 36.7776L33.7334 36.7632C32.6741 35.8653 31.3274 35.3781 29.9388 35.3903L29.9272 35.3904L29.9157 35.3902C28.545 35.3706 27.2129 35.8449 26.1629 36.7263L26.1515 36.7359L26.1397 36.7451C25.6533 37.1293 25.2628 37.6212 24.999 38.1821C24.7352 38.743 24.6054 39.3575 24.6197 39.9771L24.62 39.9887V54.4703H22.62V40.0114C22.6004 39.086 22.7952 38.1686 23.1891 37.3309C23.5827 36.4941 24.1642 35.7597 24.8884 35.1849C26.3015 34.0034 28.0909 33.3667 29.9327 33.3903Z" fill="#1C1B1A"/>
<path d="M44.1899 22.1999V12.8799H51.3199V27.2299" fill="#FEE7E7"/>
<path fill-rule="evenodd" clip-rule="evenodd" d="M43.1899 12.8799C43.1899 12.3276 43.6377 11.8799 44.1899 11.8799H51.3199C51.8722 11.8799 52.3199 12.3276 52.3199 12.8799V27.2299H50.3199V13.8799H45.1899V22.1999H43.1899V12.8799Z" fill="#1C1B1A"/>
<path fill-rule="evenodd" clip-rule="evenodd" d="M25.3601 13.6428C26.2931 12.9487 27.5432 12.8563 28.5681 13.4057L62.0352 31.345C62.4361 31.5599 62.6414 32.0182 62.5349 32.4604C62.4285 32.9026 62.037 33.2173 61.5822 33.2262L52.6473 33.4003V47.2675H50.6473V33.4003C50.6473 32.3109 51.5191 31.4219 52.6083 31.4007L57.7198 31.3011L27.6232 15.1685C27.2816 14.9853 26.8649 15.0161 26.5539 15.2475L11.7554 26.2568H14.7867C15.339 26.2568 15.7867 26.7045 15.7867 27.2568V53.5734H49.0059V55.5734H14.7867C14.2344 55.5734 13.7867 55.1257 13.7867 54.5734V28.2568H8.73591C8.30476 28.2568 7.92216 27.9804 7.78661 27.5712C7.65106 27.1619 7.7931 26.7118 8.13902 26.4545L25.3601 13.6428Z" fill="#1C1B1A"/>
<path d="M27.1502 46.3804C27.6969 46.3804 28.1402 45.9372 28.1402 45.3904C28.1402 44.8436 27.6969 44.4004 27.1502 44.4004C26.6034 44.4004 26.1602 44.8436 26.1602 45.3904C26.1602 45.9372 26.6034 46.3804 27.1502 46.3804Z" fill="#1C1B1A"/>
<path fill-rule="evenodd" clip-rule="evenodd" d="M49.8901 47.2803H69.7001C70.2524 47.2803 70.7001 47.728 70.7001 48.2803V60.5503C70.7001 61.1026 70.2524 61.5503 69.7001 61.5503H49.8901C49.3379 61.5503 48.8901 61.1026 48.8901 60.5503V48.2803C48.8901 47.728 49.3379 47.2803 49.8901 47.2803ZM60.4701 51.2005L62.5601 52.7705C62.702 52.8821 62.8152 53.0261 62.8901 53.1905C62.9608 53.3478 62.9983 53.518 63.0001 53.6905V56.8105C62.9976 57.1113 62.8783 57.3993 62.6675 57.6139C62.4567 57.8284 62.1708 57.9527 61.8701 57.9605H57.7201C57.5692 57.9607 57.4198 57.9308 57.2807 57.8724C57.1416 57.814 57.0155 57.7283 56.9101 57.6205C56.7994 57.5166 56.7113 57.3911 56.6511 57.2517C56.5909 57.1124 56.5599 56.9622 56.5601 56.8105V53.6905C56.5618 53.518 56.5993 53.3478 56.6701 53.1905C56.7601 53.0158 56.8903 52.8649 57.0501 52.7505L59.1001 51.2105C59.1985 51.1337 59.3104 51.076 59.4301 51.0405C59.6634 50.9605 59.9167 50.9605 60.1501 51.0405C60.2655 51.0741 60.3739 51.1283 60.4701 51.2005Z" fill="#FEE7E7"/>
<path fill-rule="evenodd" clip-rule="evenodd" d="M47.8901 48.2803C47.8901 47.1757 48.7856 46.2803 49.8901 46.2803H69.7001C70.8047 46.2803 71.7001 47.1757 71.7001 48.2803V60.5503C71.7001 61.6548 70.8047 62.5503 69.7001 62.5503H49.8901C48.7856 62.5503 47.8901 61.6548 47.8901 60.5503V48.2803ZM69.7001 48.2803H49.8901V60.5503H69.7001V48.2803Z" fill="#1C1B1A"/>
<path fill-rule="evenodd" clip-rule="evenodd" d="M42.5898 70.0599V37.8799H44.5898V70.0599H42.5898Z" fill="#1C1B1A"/>
<path fill-rule="evenodd" clip-rule="evenodd" d="M43.8901 41.21H71.7401V43.21H43.8901V41.21Z" fill="#1C1B1A"/>
<path fill-rule="evenodd" clip-rule="evenodd" d="M58.6716 50.3551C59.349 49.9115 60.227 49.92 60.8955 50.3768L63.1233 51.8986C63.6697 52.2719 63.9961 52.8913 63.9951 53.5531L63.9899 57.0037C63.9882 58.1138 63.0828 59.0102 61.9727 59.0006L57.5375 58.9626C56.4385 58.9531 55.553 58.0587 55.5547 56.9596L55.5599 53.471C55.5609 52.7975 55.9008 52.1698 56.4641 51.8009L58.6716 50.3551ZM59.7674 52.0282L57.5599 53.474L57.5547 56.9626L61.9899 57.0007L61.9951 53.5501L59.7674 52.0282Z" fill="#1C1B1A"/>
<path fill-rule="evenodd" clip-rule="evenodd" d="M65.6602 47.2798V43.0098H67.6602V47.2798H65.6602Z" fill="#1C1B1A"/>
<path fill-rule="evenodd" clip-rule="evenodd" d="M57.2041 33.1027L25.2041 15.9227L27.4375 14.2188L59.2188 31.375L57.2041 33.1027Z" fill="#1C1B1A" fill-opacity="0.1"/>
</svg>
