<?xml version="1.0" encoding="UTF-8"?> <svg xmlns="http://www.w3.org/2000/svg" xmlns:xlink="http://www.w3.org/1999/xlink" version="1.1" id="Layer_1" x="0px" y="0px" viewBox="0 0 100 100" style="enable-background:new 0 0 100 100;" xml:space="preserve"> <style type="text/css"> .st0{fill:none;stroke:#E2B116;stroke-width:1.8;} </style> <g id="Page-1"> <g id="Desktop-Copy-3" transform="translate(-109.000000, -2348.000000)"> <g id="NonStock-Pictogram-RocketMortgage-MortgageCalculator-P1538334-Copy-2" transform="translate(110.000000, 2349.000000)"> <g id="Group" transform="translate(9.100000, 24.700000)"> <polyline id="Path" class="st0" points="45.85,45.97 6.98,45.97 6.98,6.51 "></polyline> <line id="Path_1_" class="st0" x1="63.27" y1="7.16" x2="63.27" y2="16.72"></line> </g> <polygon id="Path_2_" class="st0" points="7.17,27.57 43.51,6.38 79.78,27.83 79.78,36.15 43.51,14.7 7.17,35.89 "></polygon> <g id="Group_1_" transform="translate(29.900000, 22.750000)"> <path id="Path_3_" class="st0" d="M19.98,13.99c0,0-2.08-2.93-5.98-2.93s-5.72,2.41-5.72,4.74c0,6.63,11.83,3.7,11.83,11.11 c0,3.32-3.06,5.33-5.98,5.33s-5.2-1.36-7.09-3.57"></path> <line id="Path_4_" class="st0" x1="14" y1="11.06" x2="14" y2="6.9"></line> <line id="Path_5_" class="st0" x1="14" y1="36.74" x2="14" y2="32.25"></line> </g> <g id="Group_2_" transform="translate(52.000000, 38.350000)"> <path id="Path_6_" class="st0" d="M6.72,50.26V8.53c0-1.17,0.91-2.08,2.08-2.08h27.82c1.17,0,2.08,0.91,2.08,2.08v41.73 c0,1.17-0.91,2.08-2.08,2.08H8.8C7.63,52.34,6.72,51.43,6.72,50.26z"></path> <rect id="Rectangle" x="11.46" y="10.48" class="st0" width="22.94" height="9.69"></rect> <circle id="Oval" class="st0" cx="13.93" cy="27.31" r="2.41"></circle> <circle id="Oval_1_" class="st0" cx="23.03" cy="27.31" r="2.41"></circle> <circle id="Oval_2_" class="st0" cx="31.94" cy="27.31" r="2.41"></circle> <circle id="Oval_3_" class="st0" cx="13.93" cy="36.22" r="2.41"></circle> <circle id="Oval_4_" class="st0" cx="23.03" cy="36.22" r="2.41"></circle> <circle id="Oval_5_" class="st0" cx="31.94" cy="36.22" r="2.41"></circle> <circle id="Oval_6_" class="st0" cx="13.93" cy="44.99" r="2.4"></circle> <circle id="Oval_7_" class="st0" cx="23.03" cy="44.99" r="2.4"></circle> <circle id="Oval_8_" class="st0" cx="31.94" cy="44.99" r="2.4"></circle> </g> </g> </g> </g> </svg> 