<svg width="80" height="80" viewBox="0 0 80 80" fill="none" xmlns="http://www.w3.org/2000/svg">
<path d="M53.31 22.6301C52.4705 21.356 52.0413 19.8554 52.0801 18.3301H61.19V22.6301C61.19 22.6301 53.7 23.2201 53.31 22.6301Z" fill="#E7E2F2"/>
<path d="M19.0601 18.3496H28.1701C28.1878 19.4817 27.9601 20.6043 27.5027 21.6401C27.0452 22.6758 26.3688 23.6002 25.5201 24.3496C24.6842 25.2045 23.6831 25.8804 22.5776 26.3359C21.4722 26.7915 20.2856 27.0173 19.0901 26.9996L19.0601 18.3496Z" fill="#E7E2F2"/>
<path fill-rule="evenodd" clip-rule="evenodd" d="M26.5842 21.2269C26.9874 20.2577 27.1868 19.2159 27.17 18.1663L29.1698 18.1344C29.1909 19.4584 28.9394 20.7725 28.4308 21.9951C27.9238 23.2137 27.1723 24.3153 26.2227 25.2319C25.291 26.1736 24.1788 26.9175 22.9527 27.4191C21.7225 27.9222 20.4032 28.1709 19.0743 28.1503L19.1055 26.1505C20.1643 26.167 21.2154 25.9688 22.1955 25.5679C23.1756 25.167 24.0643 24.5718 24.8081 23.818L24.8171 23.8089L24.8264 23.7999C25.5826 23.0719 26.181 22.1961 26.5842 21.2269Z" fill="#1C1B1A"/>
<path fill-rule="evenodd" clip-rule="evenodd" d="M53.1799 18.171C53.153 19.4771 53.4576 20.7688 54.0653 21.9253L52.2948 22.8556C51.5299 21.3998 51.1465 19.774 51.1803 18.1299L53.1799 18.171Z" fill="#1C1B1A"/>
<path fill-rule="evenodd" clip-rule="evenodd" d="M18.3358 17.5858C18.7109 17.2107 19.2196 17 19.75 17H60.25C60.7804 17 61.2891 17.2107 61.6642 17.5858C62.0393 17.9609 62.25 18.4696 62.25 19V22.68H60.25V19H19.75V42.81H17.75V19C17.75 18.4696 17.9607 17.9609 18.3358 17.5858Z" fill="#1C1B1A"/>
<path d="M66.2302 31.8302C65.0363 31.8488 63.8511 31.6253 62.746 31.1733C61.6409 30.7213 60.6388 30.0501 59.8002 29.2002C58.953 28.4495 58.2776 27.5249 57.8203 26.4894C57.363 25.454 57.1344 24.332 57.1502 23.2002H66.2602L66.2302 31.8302Z" fill="#E7E2F2"/>
<path d="M66.2599 50.9302H57.1499C57.1321 49.798 57.3598 48.6755 57.8173 47.6397C58.2747 46.604 58.9511 45.6796 59.7999 44.9302C60.6366 44.0771 61.6381 43.4031 62.7435 42.9492C63.8489 42.4954 65.0351 42.2712 66.2299 42.2902L66.2599 50.9302Z" fill="#E7E2F2"/>
<path d="M24.1299 23.21H33.2399C33.2557 24.3418 33.0271 25.4637 32.5697 26.4992C32.1124 27.5347 31.4371 28.4593 30.5899 29.21C29.7513 30.0599 28.7492 30.7311 27.6441 31.1831C26.539 31.6351 25.3537 31.8585 24.1599 31.84L24.1299 23.21Z" fill="#E7E2F2"/>
<path d="M45.2295 42.6178C43.9057 42.1884 42.4708 41.9672 41.9747 41.5502C41.0702 40.79 40.4565 39.7403 40.2376 38.5793C40.0187 37.4182 40.2081 36.2171 40.7737 35.1798C41.3393 34.1424 42.2463 33.3326 43.3408 32.8877C44.4354 32.4427 45.6502 32.39 46.7791 32.7385C47.9081 33.087 48.8818 33.8153 49.5351 34.7998C50.1884 35.7843 50.4811 36.9644 50.3635 38.1401C50.246 39.3158 49.7254 40.4146 48.8902 41.2503C48.4107 41.7398 47.8358 42.1256 47.201 42.3836C46.5662 42.6416 45.9145 42.634 45.2295 42.6178Z" fill="#E7E2F2"/>
<path fill-rule="evenodd" clip-rule="evenodd" d="M46.4842 33.694C45.5757 33.4136 44.5982 33.456 43.7174 33.814C42.8367 34.1721 42.1068 34.8237 41.6517 35.6585C41.1965 36.4932 41.0441 37.4597 41.2203 38.394C41.3964 39.3283 41.8902 40.173 42.6181 40.7847C42.6175 40.7842 42.6178 40.7844 42.6192 40.7853C42.6293 40.7918 42.6947 40.8339 42.8638 40.8986C43.0421 40.9668 43.2715 41.0367 43.5567 41.1151C43.7105 41.1574 43.8824 41.2024 44.0655 41.2503C44.4772 41.3581 44.9459 41.4808 45.3951 41.6211C46.0215 41.6328 46.4375 41.6145 46.8244 41.4572C47.3322 41.2508 47.7922 40.9422 48.1758 40.5506L48.1829 40.5433C48.855 39.8709 49.2739 38.9867 49.3685 38.0406C49.4631 37.0946 49.2276 36.1449 48.7019 35.3527C48.1762 34.5605 47.3926 33.9745 46.4842 33.694ZM42.9643 31.9613C44.2726 31.4294 45.7246 31.3665 47.0741 31.783C48.4236 32.1996 49.5874 33.0701 50.3683 34.2469C51.1492 35.4236 51.4991 36.8343 51.3586 38.2396C51.2182 39.6432 50.5974 40.9551 49.6011 41.9536C49.0264 42.5393 48.3377 43.001 47.5776 43.31C46.7321 43.6536 45.8864 43.6336 45.2261 43.618L45.0599 43.6141L44.921 43.569C44.4863 43.428 44.0568 43.3157 43.6249 43.2027C43.4262 43.1508 43.2271 43.0987 43.0267 43.0436C42.7257 42.9609 42.4206 42.8705 42.149 42.7665C41.8917 42.6681 41.5843 42.5284 41.3313 42.3157C40.2501 41.407 39.5165 40.1524 39.2549 38.7645C38.9932 37.3767 39.2197 35.941 39.8957 34.7011C40.5718 33.4611 41.6559 32.4931 42.9643 31.9613Z" fill="#1C1B1A"/>
<path fill-rule="evenodd" clip-rule="evenodd" d="M31.6535 26.0709C32.0567 25.1034 32.2564 24.0633 32.2403 23.0153L34.2401 22.9846C34.2604 24.307 34.0083 25.6194 33.4997 26.8402C32.9929 28.0564 32.2422 29.1559 31.2939 30.0706C30.3643 31.0156 29.2527 31.7624 28.0264 32.266C26.7955 32.7713 25.4747 33.021 24.1443 32.9998L24.1761 31.0001C25.2353 31.0169 26.2868 30.8182 27.2668 30.4158C28.2467 30.0135 29.1345 29.416 29.8763 28.6597L29.8865 28.6493L29.897 28.6392C30.6525 27.9126 31.2504 27.0384 31.6535 26.0709Z" fill="#1C1B1A"/>
<path fill-rule="evenodd" clip-rule="evenodd" d="M58.1599 23.0137C58.1455 24.0624 58.3469 25.1029 58.7516 26.0705C59.1563 27.0382 59.7556 27.9122 60.5124 28.6384L60.5237 28.6493L60.5346 28.6604C61.2755 29.4173 62.163 30.0152 63.1428 30.4175C64.1226 30.8197 65.1741 31.018 66.2331 31.0001L66.2669 32.9998C64.936 33.0223 63.6145 32.7731 62.3831 32.2676C61.1566 31.764 60.0452 31.0166 59.1163 30.0706C58.167 29.1567 57.4149 28.058 56.9065 26.8422C56.396 25.6216 56.1419 24.3091 56.1601 22.9862L58.1599 23.0137Z" fill="#1C1B1A"/>
<path fill-rule="evenodd" clip-rule="evenodd" d="M23.4056 22.4159C23.7807 22.0408 24.2894 21.8301 24.8198 21.8301H65.3198C65.8503 21.8301 66.359 22.0408 66.734 22.4159C67.1091 22.7909 67.3198 23.2996 67.3198 23.8301V50.9201H65.3198V23.8301H24.8198V40.5701H22.8198V23.8301C22.8198 23.2996 23.0305 22.7909 23.4056 22.4159Z" fill="#1C1B1A"/>
<path fill-rule="evenodd" clip-rule="evenodd" d="M66.2332 43.3595C65.1742 43.3416 64.1226 43.5399 63.1428 43.9421C62.163 44.3444 61.2756 44.9423 60.5347 45.6992L60.5232 45.7109L60.5114 45.7222C59.7592 46.442 59.1625 47.3083 58.7581 48.2676C58.3536 49.227 58.1501 50.2591 58.16 51.3001L56.1601 51.3192C56.1476 50.0048 56.4046 48.7019 56.9151 47.4907C57.4236 46.2846 58.1728 45.195 59.1169 44.2885C60.0457 43.3428 61.1569 42.5955 62.3832 42.092C63.6146 41.5865 64.9361 41.3373 66.267 41.3598L66.2332 43.3595Z" fill="#1C1B1A"/>
<path d="M29.1299 37.4898C29.356 37.43 29.5938 37.43 29.8199 37.4898L50.2099 43.1298C51.1303 43.3946 51.9185 43.9938 52.4199 44.8098C52.7499 45.3498 52.7999 46.3998 52.7699 49.2698C52.7699 49.6798 52.7699 50.0998 52.7699 50.4398L65.5099 49.6098V47.1298L55.1399 47.9998C55.1399 45.1298 55.1399 43.9998 54.5699 43.1298C53.8831 42.0236 52.8164 41.2059 51.5699 40.8298L30.6499 35.1698C30.1665 35.046 29.6568 35.0739 29.1899 35.2498L19.0938 39.25V41.52L29.1299 37.4898Z" fill="#1C1B1A" fill-opacity="0.1"/>
<path fill-rule="evenodd" clip-rule="evenodd" d="M29.1577 37.4381C29.3565 37.3608 29.5747 37.3491 29.7805 37.4046L50.6505 43.0346C50.6587 43.0368 50.6669 43.0392 50.6751 43.0416C51.5784 43.3102 52.3518 43.9007 52.8489 44.7014C53.0115 44.9619 53.0727 45.273 53.104 45.4592C53.1426 45.6889 53.1676 45.9534 53.1847 46.226C53.219 46.7735 53.2263 47.4373 53.2251 48.0895C53.2244 48.4655 53.2206 48.859 53.217 49.2286C53.2145 49.4902 53.2121 49.7399 53.211 49.9629C53.2104 50.0877 53.2102 50.2039 53.2104 50.3115L67.1156 49.4428C67.6161 49.4003 68.1198 49.471 68.5895 49.6495C69.0519 49.8253 69.4695 50.1014 69.8124 50.4576C70.5129 51.1094 71.0635 51.9057 71.4257 52.7916C71.6268 53.2834 71.4082 53.8466 70.928 54.0739L51.498 63.2739C51.3999 63.3204 51.2948 63.3506 51.1869 63.3633L50.6769 63.4233C50.5627 63.4367 50.4471 63.4303 50.3351 63.4045L25.3647 57.6383L17.4262 61.0597L16.6346 59.223L24.8743 55.6718C25.07 55.5874 25.2875 55.5678 25.4951 55.6158L50.6158 61.4167L50.7904 61.3961L69.1277 52.7135C68.9287 52.4191 68.6956 52.1479 68.4327 51.9057C68.4152 51.8896 68.3982 51.8729 68.3819 51.8555C68.2418 51.7067 68.0697 51.5916 67.8787 51.519C67.6876 51.4463 67.4825 51.418 67.2789 51.4362C67.2742 51.4366 67.2694 51.437 67.2646 51.4373C67.2606 51.4376 67.2565 51.4379 67.2524 51.4382L46.9224 52.7082C46.7518 52.7188 46.5813 52.6856 46.4271 52.6115L38.3071 48.7115L39.173 46.9087L47.058 50.6958L51.2108 50.4364C51.2099 50.2803 51.2102 50.1174 51.211 49.9529C51.2123 49.7059 51.2148 49.4509 51.2173 49.1893C51.2208 48.8327 51.2244 48.4637 51.2251 48.0857C51.2263 47.4404 51.2187 46.8305 51.1886 46.3511C51.1735 46.1102 51.1539 45.923 51.1317 45.7907C51.1248 45.7497 51.1187 45.7205 51.1142 45.7013C50.877 45.3476 50.5245 45.0861 50.116 44.9619L29.5765 39.4211L17.9724 43.9322L17.2477 42.0681L29.1577 37.4381Z" fill="#1C1B1A"/>
<path d="M16.61 39.6699H10.5C9.94772 39.6699 9.5 40.1176 9.5 40.6699V61.4099C9.5 61.9622 9.94772 62.4099 10.5 62.4099H16.61C17.1623 62.4099 17.61 61.9622 17.61 61.4099V40.6699C17.61 40.1176 17.1623 39.6699 16.61 39.6699Z" fill="#FEE7E7"/>
<path fill-rule="evenodd" clip-rule="evenodd" d="M8.5 40.6699C8.5 39.5654 9.39543 38.6699 10.5 38.6699H16.61C17.7146 38.6699 18.61 39.5654 18.61 40.6699V61.4099C18.61 62.5145 17.7146 63.4099 16.61 63.4099H10.5C9.39543 63.4099 8.5 62.5145 8.5 61.4099V40.6699ZM16.61 40.6699H10.5V61.4099H16.61V40.6699Z" fill="#1C1B1A"/>
</svg>
