<svg width="80" height="79" viewBox="0 0 80 79" fill="none" xmlns="http://www.w3.org/2000/svg">
<g clip-path="url(#clip0_1589_18850)">
<path fill-rule="evenodd" clip-rule="evenodd" d="M40.0563 43.3482L25.6758 54.1809V67.0692H23.6758V53.8768C23.6758 53.4562 23.8749 53.0596 24.2144 52.8039L39.2209 41.4997C39.7138 41.1284 40.3987 41.1284 40.8917 41.4997L55.8982 52.8039C56.2377 53.0596 56.4368 53.4562 56.4368 53.8768V65.9833H54.4368V54.1809L40.0563 43.3482Z" fill="#1C1B1A"/>
<path fill-rule="evenodd" clip-rule="evenodd" d="M53.8496 40.6928C53.8496 39.9464 53.2345 39.3413 52.4756 39.3413H48.347C47.5882 39.3413 46.9731 39.9464 46.9731 40.6928V44.0927L53.8496 49.7985V40.6928ZM51.8496 41.3085V45.5653L48.9731 43.1785V41.3085H51.8496Z" fill="#1C1B1A"/>
<path d="M39.9544 42.3538L23.1992 54.8209C22.7065 55.1875 22 54.8418 22 54.2342V52.0572C22 51.8267 22.1098 51.6095 22.2967 51.4705L39.7272 38.5009C39.9956 38.3012 40.3667 38.3024 40.6337 38.5039L57.818 51.4704C58.0025 51.6096 58.1107 51.8254 58.1107 52.0541V54.2216C58.1107 54.8315 57.3995 55.1766 56.9075 54.8053L40.4077 42.3553C40.2741 42.2546 40.0886 42.2539 39.9544 42.3538Z" fill="#FEE7E7"/>
<path fill-rule="evenodd" clip-rule="evenodd" d="M40.1774 39.3992L23 52.1805V53.7358L39.3511 41.5693L39.91 42.296L39.9313 42.3238M39.91 42.296L39.3511 41.5693C39.8442 41.2024 40.5257 41.2047 41.0163 41.5749L57.1107 53.7189V52.1763L40.1774 39.3992M39.1239 37.7164C39.7512 37.2496 40.6183 37.2525 41.2424 37.7234L58.4267 50.6899L57.818 51.4703L58.4267 50.6899C58.8579 51.0153 59.1107 51.5195 59.1107 52.0541V54.2216C59.1107 55.647 57.4487 56.4533 56.2988 55.5857L40.1774 43.4212L23.8025 55.6053C22.6511 56.462 21 55.6542 21 54.2342V52.0572C21 51.5185 21.2567 51.011 21.6934 50.686L39.1239 37.7164Z" fill="#1C1B1A"/>
<path d="M37.0892 63.2976H44.001V72.1517C43.2705 72.2563 41.7267 72.5268 40.8989 72.5833C40.1659 72.6334 38.0556 72.5665 37.0892 72.4992V63.2976Z" fill="#E7E2F2"/>
<path fill-rule="evenodd" clip-rule="evenodd" d="M45.001 62.314H36.0892V73.4155L37.0186 73.4803C37.9918 73.5481 40.161 73.6197 40.9681 73.5646C41.6196 73.5201 42.6929 73.3511 43.4719 73.2285C43.7414 73.1861 43.9757 73.1492 44.145 73.125L45.001 73.0024V62.314ZM43.001 64.2812V71.3097C42.2506 71.4278 41.3759 71.5648 40.8296 71.6021C40.3426 71.6353 39.0946 71.61 38.0892 71.5675V64.2812H43.001Z" fill="#1C1B1A"/>
<path d="M41 68.3015C41 68.6498 41.287 68.9321 41.6411 68.9321C41.9952 68.9321 42.2822 68.6498 42.2822 68.3015C42.2822 67.9532 41.9952 67.6709 41.6411 67.6709C41.287 67.6709 41 67.9532 41 68.3015Z" fill="#1C1B1A"/>
<path d="M37.3169 53.3075C37.3169 54.9217 38.6431 56.2302 40.279 56.2302C41.915 56.2302 43.2412 54.9217 43.2412 53.3075C43.2412 51.6934 41.915 50.3849 40.279 50.3849C38.6431 50.3849 37.3169 51.6934 37.3169 53.3075Z" fill="#E7E2F2"/>
<path fill-rule="evenodd" clip-rule="evenodd" d="M40.279 51.3685C41.3598 51.3685 42.2412 52.2337 42.2412 53.3075C42.2412 54.3813 41.3598 55.2465 40.279 55.2465C39.1983 55.2465 38.3169 54.3813 38.3169 53.3075C38.3169 52.2337 39.1983 51.3685 40.279 51.3685ZM44.2412 53.3075C44.2412 51.153 42.4702 49.4012 40.279 49.4012C38.0879 49.4012 36.3169 51.153 36.3169 53.3075C36.3169 55.462 38.0879 57.2138 40.279 57.2138C42.4702 57.2138 44.2412 55.462 44.2412 53.3075Z" fill="#1C1B1A"/>
<path d="M54 20.6557C54 28.261 47.732 34.4262 40 34.4262C32.268 34.4262 26 28.261 26 20.6557C26 13.0505 32.268 6.88525 40 6.88525C47.732 6.88525 54 13.0505 54 20.6557Z" fill="#FEE7E7"/>
<path fill-rule="evenodd" clip-rule="evenodd" d="M40 7.86882C32.8203 7.86882 27 13.5937 27 20.6557C27 27.7177 32.8203 33.4426 40 33.4426C47.1797 33.4426 53 27.7177 53 20.6557C53 13.5937 47.1797 7.86882 40 7.86882ZM25 20.6557C25 12.5072 31.7157 5.90161 40 5.90161C48.2843 5.90161 55 12.5072 55 20.6557C55 28.8042 48.2843 35.4098 40 35.4098C31.7157 35.4098 25 28.8042 25 20.6557Z" fill="#1C1B1A"/>
<path fill-rule="evenodd" clip-rule="evenodd" d="M36.625 14.6311C35.131 14.6311 33.875 15.8665 33.875 17.336C33.875 18.8056 35.131 20.0409 36.625 20.0409C38.119 20.0409 39.375 18.8056 39.375 17.336C39.375 15.8665 38.119 14.6311 36.625 14.6311ZM35.625 17.336C35.625 16.8138 36.094 16.3524 36.625 16.3524C37.156 16.3524 37.625 16.8138 37.625 17.336C37.625 17.8583 37.156 18.3196 36.625 18.3196C36.094 18.3196 35.625 17.8583 35.625 17.336ZM43.375 21.2704C41.881 21.2704 40.625 22.5058 40.625 23.9754C40.625 25.4449 41.881 26.6803 43.375 26.6803C44.869 26.6803 46.125 25.4449 46.125 23.9754C46.125 22.5058 44.869 21.2704 43.375 21.2704ZM42.375 23.9754C42.375 23.4531 42.844 22.9918 43.375 22.9918C43.906 22.9918 44.375 23.4531 44.375 23.9754C44.375 24.4976 43.906 24.959 43.375 24.959C42.844 24.959 42.375 24.4976 42.375 23.9754Z" fill="#1C1B1A"/>
<path fill-rule="evenodd" clip-rule="evenodd" d="M43.1112 14.8926L35.4658 25.4163L36.8897 26.417L44.535 15.8933L43.1112 14.8926Z" fill="#1C1B1A"/>
<path fill-rule="evenodd" clip-rule="evenodd" d="M19.8764 58.7239C21.4893 62.5508 24.2196 65.8214 27.7222 68.122C31.2248 70.4226 35.3423 71.6499 39.5541 71.6488C43.7658 71.6476 47.8826 70.418 51.3839 68.1155C54.8852 65.813 57.6137 62.5409 59.2244 58.7131C60.8351 54.8853 61.2556 50.6737 60.4328 46.6108C59.61 42.5479 57.5808 38.8163 54.6018 35.8878L56.0156 34.4963C59.2744 37.6999 61.4942 41.782 62.3943 46.2265C63.2944 50.671 62.8344 55.2781 61.0724 59.4655C59.3104 63.6528 56.3257 67.2321 52.4955 69.7509C48.6654 72.2697 44.1619 73.6147 39.5546 73.616C34.9473 73.6172 30.4431 72.2746 26.6115 69.758C22.78 67.2413 19.7932 63.6636 18.0289 59.4772C16.2645 55.2909 15.8019 50.684 16.6995 46.239C17.5971 41.794 19.8146 37.7107 23.0715 34.5054L24.4861 35.896C21.5088 38.8262 19.4817 42.5589 18.6612 46.6222C17.8406 50.6856 18.2636 54.897 19.8764 58.7239Z" fill="#1C1B1A"/>
<path d="M24.7861 62.6906C28.4128 66.7933 33.7582 69.387 39.7194 69.387C46.1234 69.387 51.8166 66.3938 55.4319 61.7521V66.0861C51.297 69.8492 45.7657 72.149 39.6882 72.149C34.0141 72.149 28.8161 70.8936 24.7861 67.5651V62.6906Z" fill="#1C1B1A" fill-opacity="0.1"/>
<path fill-rule="evenodd" clip-rule="evenodd" d="M19 34.4261H25V40.3278H23V36.3934H19V34.4261Z" fill="#1C1B1A"/>
</g>
<defs>
<clipPath id="clip0_1589_18850">
<rect width="80" height="78.6885" fill="white"/>
</clipPath>
</defs>
</svg>
